# generated from PmQm by Jehee Lee
:FULLY-SPECIFIED
:DEGREES
147
root 88.88529559 39.3275 -101.9364483 -103.7251663 86.30833338 -101.9776502
RightUpLeg -5.35571678 2.821170682 8.765145677
RightLeg 19.92726365 0 0
RightFoot -13.48061485 7.094877883 -6.763596552
RightToes 2.32829e-010 -1.59028e-015 9.93923e-017
Spine -7.50674 3.43618 11.2677
Spine1 13.3803 4.13737 -3.40054
HEad -7.70232 -4.95186 1.66868
LeftShoulder1 9.93923e-017 0 1.22299e-017
LeftArm 9.94681 53.4464 -71.1492
LeftForeArm -17.9221 -13.2168 -3.49391
LeftHand 1.0069 7.19274 -7.40753
RightShoulder 1.98785e-016 -4.96962e-017 1.55301e-017
RightArm 21.8119 -28.0745 84.0461
RightForeArm -46.3925 27.0863 -24.6167
RightHand 1.13036 -10.0345 -6.34538
LeftUpLeg -25.98704588 -1.710210255 5.517069295
LeftLeg 39.53599269 -7.014409723 2.149769932
LeftFoot 3.410902362 -2.121919727 -6.943962169
LeftToes 8.82235e-011 9.04645e-011 1.87288e-011
148
root 90.34870349 39.2265 -101.8866516 -96.15116756 86.16234931 -94.08264607
RightUpLeg -2.043186837 2.209109823 9.093429329
RightLeg 19.01078372 0 0
RightFoot -15.29011525 7.832308884 -6.671393696
RightToes 2.32829e-010 -1.59028e-015 9.93923e-017
Spine -7.51407 3.94656 12.4929
Spine1 13.8214 4.73415 -4.4139
HEad -8.20261 -4.98025 1.35199
LeftShoulder1 9.93923e-017 0 1.22299e-017
LeftArm 7.05531 54.8469 -68.866
LeftForeArm -15.3483 -12.2028 -3.69852
LeftHand 0.989239 6.97426 -6.78467
RightShoulder 1.98785e-016 -4.96962e-017 1.55301e-017
RightArm 20.9799 -24.6445 83.1853
RightForeArm -44.7933 28.7058 -25.8324
RightHand 1.16563 -10.225 -6.54391
LeftUpLeg -26.13582666 -0.5828815701 4.99510014
LeftLeg 28.24813343 -7.224132453 1.167783343
LeftFoot 4.963696732 -1.223911957 -7.412465349
LeftToes 8.82235e-011 9.04645e-011 1.87288e-011
149
root 91.83233292 39.1368 -101.847068 -94.19623042 86.02655512 -92.10850553
RightUpLeg 1.239461735 1.765500179 9.338345314
RightLeg 17.49189179 0 0
RightFoot -16.48070598 8.383537843 -6.588954276
RightToes 2.32829e-010 -1.59028e-015 9.93923e-017
Spine -8.09685 4.28993 13.4388
Spine1 14.4793 5.16981 -5.55563
HEad -8.53831 -5.02505 1.2513
LeftShoulder1 9.93923e-017 0 1.22299e-017
LeftArm 3.03309 55.6042 -66.8765
LeftForeArm -11.7008 -10.2295 -4.35487
LeftHand 0.964956 6.70599 -5.97777
RightShoulder 1.98785e-016 -4.96962e-017 1.55301e-017
RightArm 20.1872 -21.9817 82.6238
RightForeArm -44.228 29.6533 -26.5435
RightHand 1.17304 -10.2993 -6.4314
LeftUpLeg -25.55816501 -0.6560796966 4.408394704
LeftLeg 15.76912971 -6.887259501 0.5871500742
LeftFoot 6.731486692 -0.6084410139 -6.903230527
LeftToes 8.82235e-011 9.04645e-011 1.87288e-011
150
root 93.34284008 39.0155 -101.835329 -88.91826807 85.81344868 -87.49613628
RightUpLeg 3.677196297 1.46561514 9.534405051
RightLeg 16.21080475 0 0
RightFoot -17.6424753 9.09975066 -6.535606419
RightToes 2.32829e-010 -1.59028e-015 9.93923e-017
Spine -9.55206 4.83757 14.5931
Spine1 15.3412 5.80493 -6.97747
HEad -8.71883 -5.13068 1.30073
LeftShoulder1 9.93923e-017 0 1.22299e-017
LeftArm -0.365423 55.8509 -65.2931
LeftForeArm -9.19698 -8.25998 -4.8776
LeftHand 0.973909 6.82217 -5.55341
RightShoulder 1.98785e-016 -4.96962e-017 1.55301e-017
RightArm 19.5693 -20.2135 82.2798
RightForeArm -44.1874 29.9719 -26.7769
RightHand 1.14635 -10.1704 -6.21836
LeftUpLeg -25.62677601 -0.3723281695 3.58424465
LeftLeg 4.871213879 -6.17032761 0.4773314106
LeftFoot 6.871438747 -0.1521279201 -7.171829429
LeftToes 8.82235e-011 9.04645e-011 1.87288e-011
151
root 94.90308953 38.7936 -101.8714255 -82.2657793 85.34460689 -81.88021261
RightUpLeg 5.176205501 1.109834146 9.634489981
RightLeg 16.1969935 0 0
RightFoot -18.97355319 10.18445208 -6.005876424
RightToes 2.32829e-010 -1.59028e-015 9.93923e-017
Spine -11.2292 5.50976 16.0989
Spine1 16.0748 6.49691 -8.38122
HEad -8.96868 -5.25482 1.45882
LeftShoulder1 9.93923e-017 0 1.22299e-017
LeftArm -3.43556 55.6358 -64.3967
LeftForeArm -7.41591 -6.44362 -5.20002
LeftHand 1.00257 7.13443 -5.52391
RightShoulder 1.98785e-016 -4.96962e-017 1.55301e-017
RightArm 19.2962 -19.3455 82.2059
RightForeArm -44.2739 29.6849 -26.5628
RightHand 1.13498 -10.1113 -6.14149
LeftUpLeg -27.59627215 -0.5250102767 3.239274656
LeftLeg 0.4458545836 -3.690805045 0.21448632
LeftFoot 4.4199077 0.1826994987 -8.961481682
LeftToes 8.82235e-011 9.04645e-011 1.87288e-011
152
root 96.48863997 38.606 -101.9181822 -80.17431479 85.38713034 -80.58833105
RightUpLeg 6.772715512 0.6661001072 9.075470058
RightLeg 16.48082524 0 0
RightFoot -19.21335631 11.51454328 -4.827631182
RightToes 2.32829e-010 -1.59028e-015 9.93923e-017
Spine -12.1546 5.85722 16.6885
Spine1 16.4674 7.00495 -9.47714
HEad -9.44381 -5.42776 1.65421
LeftShoulder1 9.93923e-017 0 1.22299e-017
LeftArm -6.6077 55.0293 -64.3725
LeftForeArm -5.50597 -4.71902 -5.34881
LeftHand 1.0012 7.1207 -5.41116
RightShoulder 1.98785e-016 -4.96962e-017 1.55301e-017
RightArm 19.1526 -19.652 82.4421
RightForeArm -44.4089 28.9425 -26.0225
RightHand 1.15452 -10.207 -6.29791
LeftUpLeg -29.10849061 -0.9860969927 2.406382188
LeftLeg 0.5415684929 -1.36169235 -0.03967932272
LeftFoot 2.156219685 0.6367801159 -10.16466324
LeftToes 8.82235e-011 9.04645e-011 1.87288e-011
153
root 98.16320653 38.4781 -101.9823187 -70.35417577 86.03048806 -71.1624615
RightUpLeg 8.549378229 -0.1005390628 7.252734028
RightLeg 17.44903432 0 0
RightFoot -18.6617975 13.96372522 -3.589901398
RightToes 2.32829e-010 -1.59028e-015 9.93923e-017
Spine -12.4809 6.07 16.131
Spine1 16.6758 7.5605 -10.1947
HEad -9.91584 -5.61014 1.72987
LeftShoulder1 9.93923e-017 0 1.22299e-017
LeftArm -9.17442 54.3413 -65.0809
LeftForeArm -4.28792 -3.67452 -5.31467
LeftHand 0.976454 6.86272 -5.07199
RightShoulder 1.98785e-016 -4.96962e-017 1.55301e-017
RightArm 19.3593 -21.2995 82.9588
RightForeArm -44.8823 27.7921 -25.1879
RightHand 1.1632 -10.207 -6.55283
LeftUpLeg -28.78672635 -1.915413586 1.183766519
LeftLeg 2.102161624 0 0
LeftFoot 2.671051513 0.6307978289 -8.146425793
LeftToes 8.82235e-011 9.04645e-011 1.87288e-011
154
root 99.93592637 38.3992 -102.1588348 -23.78613754 84.49691387 -25.03087886
RightUpLeg 9.03438447 -1.26297237 2.692281159
RightLeg 20.72439505 0 0
RightFoot -17.7737017 20.43384949 -2.588460277
RightToes 2.32829e-010 -1.59028e-015 9.93923e-017
Spine -12.9619 6.48979 14.6785
Spine1 16.9032 8.37685 -10.7635
HEad -9.95357 -5.53207 1.71529
LeftShoulder1 9.93923e-017 0 1.22299e-017
LeftArm -10.4968 54.0093 -66.1619
LeftForeArm -4.69278 -3.83271 -5.16164
LeftHand 0.972732 6.82958 -4.8704
RightShoulder 1.98785e-016 -4.96962e-017 1.55301e-017
RightArm 21.128 -23.8806 83.8761
RightForeArm -46.265 25.967 -23.8724
RightHand 1.1413 -10.0446 -6.63461
LeftUpLeg -28.56387797 -2.575318188 0.9080915243
LeftLeg 6.217384248 0 0
LeftFoot 4.693029961 2.787133231 -3.242578987
LeftToes 8.82235e-011 9.04645e-011 1.87288e-011
